<svg xmlns="http://www.w3.org/2000/svg" xmlns:xlink="http://www.w3.org/1999/xlink" width="1080" zoomAndPan="magnify" viewBox="0 0 810 809.999993" height="1080" preserveAspectRatio="xMidYMid meet" version="1.0"><defs><filter x="0%" y="0%" width="100%" height="100%" id="7b58a07c18"><feColorMatrix values="0 0 0 0 1 0 0 0 0 1 0 0 0 0 1 0 0 0 1 0" color-interpolation-filters="sRGB"/></filter><mask id="ce05b9c1c2"><g filter="url(#7b58a07c18)"><rect x="-81" width="972" fill="#000000" y="-80.999999" height="971.999992" fill-opacity="0.35"/></g></mask><clipPath id="31186ca265"><path d="M 0 0.398438 L 810 0.398438 L 810 709.375 L 0 709.375 Z M 0 0.398438 " clip-rule="nonzero"/></clipPath><clipPath id="8fd36f9d03"><path d="M 32.113281 113.792969 C -33.5625 221.992188 12.707031 327.304688 70.851562 383.199219 L 410.828125 709.375 L 743.625 384.363281 C 797.707031 324.238281 818.4375 260.457031 806.921875 189.4375 C 791.019531 91.195312 710.0625 14.972656 610.050781 4.089844 C 548.714844 -2.515625 489.460938 14.84375 443.21875 53.273438 C 430.769531 63.613281 419.644531 75.171875 409.949219 87.734375 C 398.445312 73.429688 384.957031 60.34375 369.699219 48.746094 C 316.519531 8.332031 248.828125 -7.714844 183.804688 4.765625 C 122.21875 16.660156 66.941406 56.386719 32.113281 113.792969 Z M 32.113281 113.792969 " clip-rule="nonzero"/></clipPath><clipPath id="8532fb4199"><rect x="0" width="810" y="0" height="710"/></clipPath></defs><g mask="url(#ce05b9c1c2)"><g transform="matrix(1, 0, 0, 1, 0, 50)"><g clip-path="url(#8532fb4199)"><g clip-path="url(#31186ca265)"><g clip-path="url(#8fd36f9d03)"><path fill="#f57a95" d="M 0 0.625 L 811.1875 0.625 L 811.1875 709.375 L 0 709.375 Z M 0 0.625 " fill-opacity="1" fill-rule="nonzero"/></g></g></g></g></g></svg>