<svg xmlns="http://www.w3.org/2000/svg" xmlns:xlink="http://www.w3.org/1999/xlink" width="1080" zoomAndPan="magnify" viewBox="0 0 810 809.999993" height="1080" preserveAspectRatio="xMidYMid meet" version="1.0"><defs><clipPath id="e091f00986"><path d="M 0 50 L 810 50 L 810 759.375 L 0 759.375 Z M 0 50 " clip-rule="nonzero"/></clipPath><clipPath id="090e741e98"><path d="M 32.113281 163.792969 C -33.5625 271.992188 12.707031 377.304688 70.851562 433.199219 L 410.828125 759.375 L 743.625 434.363281 C 797.707031 374.238281 818.4375 310.457031 806.921875 239.4375 C 791.019531 141.195312 710.0625 64.972656 610.050781 54.089844 C 548.714844 47.484375 489.460938 64.84375 443.21875 103.273438 C 430.769531 113.613281 419.644531 125.171875 409.949219 137.734375 C 398.445312 123.429688 384.957031 110.34375 369.699219 98.746094 C 316.519531 58.332031 248.828125 42.285156 183.804688 54.765625 C 122.21875 66.660156 66.941406 106.386719 32.113281 163.792969 Z M 32.113281 163.792969 " clip-rule="nonzero"/></clipPath></defs><g clip-path="url(#e091f00986)"><g clip-path="url(#090e741e98)"><path fill="#ef2d56" d="M 0 50.625 L 811.1875 50.625 L 811.1875 759.375 L 0 759.375 Z M 0 50.625 " fill-opacity="1" fill-rule="nonzero"/></g></g></svg>